<svg xmlns="http://www.w3.org/2000/svg" width="13.71" height="13.71" viewBox="0 0 13.71 13.71">
  <path id="check_circle_24dp_42526E_FILL0_wght300_GRAD0_opsz24_1_" data-name="check_circle_24dp_42526E_FILL0_wght300_GRAD0_opsz24 (1)" d="M105.831-850.076l4.851-4.851-.76-.76-4.091,4.091-2.056-2.057-.76.76Zm1.025,3.786a6.679,6.679,0,0,1-2.674-.54,6.924,6.924,0,0,1-2.177-1.465,6.923,6.923,0,0,1-1.466-2.176,6.672,6.672,0,0,1-.54-2.673,6.678,6.678,0,0,1,.54-2.674A6.923,6.923,0,0,1,102-857.994a6.924,6.924,0,0,1,2.176-1.466,6.672,6.672,0,0,1,2.673-.54,6.677,6.677,0,0,1,2.674.54A6.924,6.924,0,0,1,111.7-858a6.924,6.924,0,0,1,1.466,2.176,6.672,6.672,0,0,1,.54,2.673,6.678,6.678,0,0,1-.54,2.674,6.925,6.925,0,0,1-1.465,2.177,6.924,6.924,0,0,1-2.176,1.466A6.672,6.672,0,0,1,106.856-846.29Zm0-1.082a5.571,5.571,0,0,0,4.095-1.678,5.571,5.571,0,0,0,1.678-4.095,5.571,5.571,0,0,0-1.678-4.095,5.571,5.571,0,0,0-4.095-1.678,5.571,5.571,0,0,0-4.095,1.678,5.571,5.571,0,0,0-1.678,4.095,5.571,5.571,0,0,0,1.678,4.095A5.571,5.571,0,0,0,106.855-847.373ZM106.855-853.145Z" transform="translate(-100 860)" fill="#196f55"/>
</svg>
