<svg xmlns="http://www.w3.org/2000/svg" width="22.701" height="22.701" viewBox="0 0 22.701 22.701">
  <path id="Icon_ionic-ios-close-circle" data-name="Icon ionic-ios-close-circle" d="M14.726,3.375A11.351,11.351,0,1,0,26.076,14.726,11.349,11.349,0,0,0,14.726,3.375ZM17.6,18.835l-2.876-2.876L11.85,18.835A.872.872,0,1,1,10.616,17.6l2.876-2.876L10.616,11.85a.872.872,0,0,1,1.233-1.233l2.876,2.876L17.6,10.616a.872.872,0,1,1,1.233,1.233l-2.876,2.876L18.835,17.6a.876.876,0,0,1,0,1.233A.866.866,0,0,1,17.6,18.835Z" transform="translate(-3.375 -3.375)" fill="#c7393a"/>
</svg>
