<svg xmlns="http://www.w3.org/2000/svg" width="18.334" height="14.667" viewBox="0 0 18.334 14.667">
  <path id="Path_83356" data-name="Path 83356" d="M81.833-785.333a1.766,1.766,0,0,1-1.295-.539A1.765,1.765,0,0,1,80-787.166v-11a1.765,1.765,0,0,1,.539-1.295A1.765,1.765,0,0,1,81.833-800H91.917a1.821,1.821,0,0,1,.825.195,1.758,1.758,0,0,1,.642.539l4.95,6.6-4.95,6.6a1.758,1.758,0,0,1-.642.539,1.82,1.82,0,0,1-.825.195Zm0-1.833H91.917l4.125-5.5-4.125-5.5H81.833ZM86.875-792.667Z" transform="translate(-80 800)" fill="#5a607b"/>
</svg>
