<svg xmlns="http://www.w3.org/2000/svg" width="14.729" height="14.729" viewBox="0 0 14.729 14.729">
  <path id="draft_orders_24dp_42526E_FILL0_wght300_GRAD0_opsz24" d="M107.366-845.271a7.176,7.176,0,0,1-2.872-.58,7.44,7.44,0,0,1-2.339-1.574,7.437,7.437,0,0,1-1.575-2.338,7.168,7.168,0,0,1-.58-2.872,7.175,7.175,0,0,1,.58-2.872,7.439,7.439,0,0,1,1.574-2.339,7.437,7.437,0,0,1,2.338-1.575,7.169,7.169,0,0,1,2.872-.58,7.174,7.174,0,0,1,2.872.58,7.439,7.439,0,0,1,2.339,1.574,7.438,7.438,0,0,1,1.575,2.338,7.168,7.168,0,0,1,.58,2.872,7.175,7.175,0,0,1-.58,2.872,7.44,7.44,0,0,1-1.574,2.339,7.438,7.438,0,0,1-2.338,1.575A7.168,7.168,0,0,1,107.366-845.271Zm0-1.163a5.986,5.986,0,0,0,4.4-1.8,5.986,5.986,0,0,0,1.8-4.4,5.986,5.986,0,0,0-1.8-4.4,5.986,5.986,0,0,0-4.4-1.8,5.986,5.986,0,0,0-4.4,1.8,5.986,5.986,0,0,0-1.8,4.4,5.986,5.986,0,0,0,1.8,4.4A5.986,5.986,0,0,0,107.365-846.433Zm-2.862-3.34v-2.048l4.209-4.189a.922.922,0,0,1,.312-.2.954.954,0,0,1,.335-.063.941.941,0,0,1,.354.069.943.943,0,0,1,.311.206l.717.725a1.123,1.123,0,0,1,.194.313.887.887,0,0,1,.069.337,1.011,1.011,0,0,1-.063.343.906.906,0,0,1-.2.319l-4.189,4.189Zm5.576-4.851-.717-.724Zm-4.651,3.927h.736l2.517-2.528-.349-.376-.368-.356-2.536,2.524Zm2.9-2.9-.368-.356.717.732Z" transform="translate(-100 860)" fill="#8f6c1a"/>
</svg>
