<svg xmlns="http://www.w3.org/2000/svg" width="16.73" height="16.73" viewBox="0 0 16.73 16.73">
  <path id="activity_zone_24dp_42526E_FILL0_wght400_GRAD0_opsz24" d="M82.509-863.27A2.42,2.42,0,0,1,80.732-864,2.42,2.42,0,0,1,80-865.78a2.385,2.385,0,0,1,.471-1.453,2.585,2.585,0,0,1,1.2-.91v-6.985a2.583,2.583,0,0,1-1.2-.91A2.385,2.385,0,0,1,80-877.491a2.42,2.42,0,0,1,.732-1.777A2.42,2.42,0,0,1,82.509-880a2.385,2.385,0,0,1,1.453.471,2.585,2.585,0,0,1,.91,1.2h6.985a2.455,2.455,0,0,1,.889-1.2A2.418,2.418,0,0,1,94.22-880a2.42,2.42,0,0,1,1.778.732,2.42,2.42,0,0,1,.732,1.777,2.417,2.417,0,0,1-.471,1.474,2.454,2.454,0,0,1-1.2.889v6.985a2.585,2.585,0,0,1,1.2.91,2.385,2.385,0,0,1,.471,1.453A2.42,2.42,0,0,1,96-864a2.42,2.42,0,0,1-1.778.732,2.385,2.385,0,0,1-1.453-.47,2.585,2.585,0,0,1-.91-1.2H84.873a2.585,2.585,0,0,1-.91,1.2A2.385,2.385,0,0,1,82.509-863.27Zm0-13.384a.81.81,0,0,0,.6-.24.81.81,0,0,0,.24-.6.809.809,0,0,0-.24-.6.809.809,0,0,0-.6-.24.809.809,0,0,0-.6.24.809.809,0,0,0-.24.6.81.81,0,0,0,.24.6A.81.81,0,0,0,82.509-876.654Zm11.711,0a.81.81,0,0,0,.6-.24.81.81,0,0,0,.24-.6.809.809,0,0,0-.24-.6.809.809,0,0,0-.6-.24.809.809,0,0,0-.6.24.809.809,0,0,0-.24.6.81.81,0,0,0,.24.6A.81.81,0,0,0,94.22-876.654Zm-9.348,10.038h6.985a2.442,2.442,0,0,1,.586-.941,2.442,2.442,0,0,1,.941-.586v-6.985a2.44,2.44,0,0,1-.941-.585,2.441,2.441,0,0,1-.586-.941H84.873a2.441,2.441,0,0,1-.586.941,2.44,2.44,0,0,1-.941.585v6.985a2.442,2.442,0,0,1,.941.586A2.442,2.442,0,0,1,84.873-866.616Zm9.348,1.673a.81.81,0,0,0,.6-.24.809.809,0,0,0,.24-.6.809.809,0,0,0-.24-.6.809.809,0,0,0-.6-.24.809.809,0,0,0-.6.24.809.809,0,0,0-.24.6.809.809,0,0,0,.24.6A.81.81,0,0,0,94.22-864.943Zm-11.711,0a.81.81,0,0,0,.6-.24.809.809,0,0,0,.24-.6.809.809,0,0,0-.24-.6.809.809,0,0,0-.6-.24.809.809,0,0,0-.6.24.809.809,0,0,0-.24.6.809.809,0,0,0,.24.6A.81.81,0,0,0,82.509-864.943ZM82.509-877.491ZM94.22-877.491ZM94.22-865.78ZM82.509-865.78Z" transform="translate(-80 880)" fill="#1a1e3d"/>
</svg>
