<svg xmlns="http://www.w3.org/2000/svg" width="50" height="50" viewBox="0 0 50 50">
  <g id="Group_173248" data-name="Group 173248" transform="translate(-403.115 -635)">
    <g id="Rectangle_1844" data-name="Rectangle 1844" transform="translate(403.115 635)" fill="#edf6fd" stroke="#dbe9f4" stroke-width="1">
      <rect width="50" height="50" rx="4" stroke="none"/>
      <rect x="0.5" y="0.5" width="49" height="49" rx="3.5" fill="none"/>
    </g>
    <g id="school-bus-front" transform="translate(413.537 640.5)">
      <path id="Path_38269" data-name="Path 38269" d="M28.525,15.822h-1.7a.632.632,0,0,0-.631.631v2.67h-.609v-8.7c0-1.663-1.228-3.036-3.551-3.97a20.55,20.55,0,0,0-7.4-1.219h-.109a20.552,20.552,0,0,0-7.4,1.219c-2.323.934-3.551,2.307-3.551,3.97v8.7H2.959v-2.67c0-.348-.283-.805-.631-.805H.631c-.348,0-.631.458-.631.805v4.382a.632.632,0,0,0,.631.631H3.568v7.094A2.512,2.512,0,0,0,5.7,31.041V32.92a.847.847,0,0,0,.846.846H8.657A.847.847,0,0,0,9.5,32.92V31.069H19.654V32.92a.847.847,0,0,0,.846.846h2.106a.847.847,0,0,0,.846-.846V31.041a2.512,2.512,0,0,0,2.136-2.481V21.466h2.938a.632.632,0,0,0,.631-.631V16.453A.632.632,0,0,0,28.525,15.822ZM.832,20.635v-3.98h1.3v2.885a.416.416,0,0,0,.416.416H3.568v.679ZM8.671,32.92a.014.014,0,0,1-.014.014H6.551a.014.014,0,0,1-.014-.014V31.069H8.671V32.92Zm13.949,0a.014.014,0,0,1-.014.014H20.5a.014.014,0,0,1-.014-.014V31.069H22.62V32.92Zm2.136-4.36a1.678,1.678,0,0,1-1.676,1.677h-17A1.678,1.678,0,0,1,4.4,28.561V10.423c0-2.861,5.093-4.358,10.123-4.358h.109c5.031,0,10.123,1.5,10.123,4.358V28.561Zm3.569-7.926H25.588v-.679h1.025a.416.416,0,0,0,.416-.416V16.654h1.3v3.98Z" transform="translate(0)" fill="#162848"/>
      <g id="Group_173312" data-name="Group 173312" transform="translate(5.704 6.729)">
        <g id="Group_173300" data-name="Group 173300" transform="translate(0 4.296)">
          <path id="Path_38270" data-name="Path 38270" d="M111.889,113.018h-14.3a1.726,1.726,0,0,1-1.724-1.724V104.3a1.726,1.726,0,0,1,1.724-1.723h14.3a1.726,1.726,0,0,1,1.724,1.723v6.994A1.726,1.726,0,0,1,111.889,113.018Zm-14.3-9.609a.893.893,0,0,0-.892.892v6.994a.893.893,0,0,0,.892.892h14.3a.893.893,0,0,0,.892-.892V104.3a.893.893,0,0,0-.892-.892Z" transform="translate(-95.865 -102.577)" fill="#162848"/>
        </g>
        <g id="Group_173301" data-name="Group 173301" transform="translate(14.299 16.328)">
          <path id="Path_38271" data-name="Path 38271" d="M337.9,308.238a1.724,1.724,0,1,1,1.724-1.724A1.726,1.726,0,0,1,337.9,308.238Zm0-2.616a.892.892,0,1,0,.892.892A.893.893,0,0,0,337.9,305.622Z" transform="translate(-336.171 -304.79)" fill="#162848"/>
        </g>
        <g id="Group_173302" data-name="Group 173302" transform="translate(0 16.328)">
          <path id="Path_38272" data-name="Path 38272" d="M97.589,308.238a1.724,1.724,0,1,1,1.723-1.724A1.726,1.726,0,0,1,97.589,308.238Zm0-2.616a.892.892,0,1,0,.891.892A.893.893,0,0,0,97.589,305.622Z" transform="translate(-95.865 -304.79)" fill="#162848"/>
        </g>
        <g id="Group_173303" data-name="Group 173303" transform="translate(1.794 0)">
          <path id="Path_38273" data-name="Path 38273" d="M138.408,33.954H127.77c-1.634,0-1.761-.886-1.761-1.157,0-.815.926-1.435,2.833-1.9a17.478,17.478,0,0,1,8.5,0c1.906.462,2.833,1.083,2.833,1.9C140.169,33.069,140.042,33.954,138.408,33.954Zm-5.319-2.747a19.094,19.094,0,0,0-4.052.5c-1.738.421-2.2.9-2.2,1.089s.365.325.929.325h10.638c.565,0,.93-.128.93-.325s-.459-.668-2.2-1.089A19.1,19.1,0,0,0,133.089,31.208Z" transform="translate(-126.009 -30.376)" fill="#162848"/>
        </g>
        <g id="Group_173307" data-name="Group 173307" transform="translate(6.351 6.627)">
          <g id="Group_173304" data-name="Group 173304">
            <path id="Path_38274" data-name="Path 38274" d="M203.012,147.534a.416.416,0,0,1-.356-.63l2.975-4.947a.416.416,0,0,1,.713.429l-2.975,4.947A.416.416,0,0,1,203.012,147.534Z" transform="translate(-202.597 -141.755)" fill="#162848"/>
          </g>
          <g id="Group_173305" data-name="Group 173305" transform="translate(1.419 1.329)">
            <path id="Path_38275" data-name="Path 38275" d="M226.855,168.536a.416.416,0,0,1-.356-.63l2.176-3.618a.416.416,0,1,1,.713.429l-2.176,3.618A.416.416,0,0,1,226.855,168.536Z" transform="translate(-226.44 -164.086)" fill="#162848"/>
          </g>
          <g id="Group_173306" data-name="Group 173306" transform="translate(2.837 2.657)">
            <path id="Path_38276" data-name="Path 38276" d="M250.694,189.536a.416.416,0,0,1-.356-.63l1.377-2.29a.416.416,0,0,1,.713.429l-1.377,2.29A.416.416,0,0,1,250.694,189.536Z" transform="translate(-250.279 -186.414)" fill="#162848"/>
          </g>
        </g>
        <g id="Group_173311" data-name="Group 173311" transform="translate(5.116 17.636)">
          <g id="Group_173308" data-name="Group 173308" transform="translate(0 0)">
            <path id="Path_38277" data-name="Path 38277" d="M188.947,327.6h-6.684a.416.416,0,1,1,0-.832h6.684a.416.416,0,1,1,0,.832Z" transform="translate(-181.847 -326.772)" fill="#162848"/>
          </g>
          <g id="Group_173309" data-name="Group 173309" transform="translate(0 1.724)">
            <path id="Path_38278" data-name="Path 38278" d="M188.947,356.575h-6.684a.416.416,0,1,1,0-.832h6.684a.416.416,0,1,1,0,.832Z" transform="translate(-181.847 -355.743)" fill="#162848"/>
          </g>
          <g id="Group_173310" data-name="Group 173310" transform="translate(0 3.448)">
            <path id="Path_38279" data-name="Path 38279" d="M188.947,385.546h-6.684a.416.416,0,0,1,0-.832h6.684a.416.416,0,0,1,0,.832Z" transform="translate(-181.847 -384.714)" fill="#162848"/>
          </g>
        </g>
      </g>
    </g>
  </g>
</svg>
