<svg xmlns="http://www.w3.org/2000/svg" width="19.422" height="15.537" viewBox="0 0 19.422 15.537">
  <path id="Path_83357" data-name="Path 83357" d="M81.942-784.463a1.87,1.87,0,0,1-1.372-.571A1.87,1.87,0,0,1,80-786.4v-11.653a1.87,1.87,0,0,1,.571-1.372,1.87,1.87,0,0,1,1.372-.57h5.826l1.942,1.942h7.769a1.87,1.87,0,0,1,1.372.571,1.87,1.87,0,0,1,.571,1.372v9.711a1.87,1.87,0,0,1-.571,1.372,1.87,1.87,0,0,1-1.372.571Zm0-1.942H97.479v-9.711H88.91l-1.942-1.942H81.942Zm0,0v0Z" transform="translate(-80 800)" fill="#5a607b"/>
</svg>
