<svg id="Group_173751" data-name="Group 173751" xmlns="http://www.w3.org/2000/svg" width="42" height="42" viewBox="0 0 42 42">
  <circle id="Ellipse_9419" data-name="Ellipse 9419" cx="21" cy="21" r="21" fill="#def"/>
  <path id="Path_83367" data-name="Path 83367" d="M40-784.463v-2.719a2.845,2.845,0,0,1,.425-1.517,2.832,2.832,0,0,1,1.129-1.056,14.414,14.414,0,0,1,3.059-1.129,13.361,13.361,0,0,1,3.156-.376,13.361,13.361,0,0,1,3.156.376,14.414,14.414,0,0,1,3.059,1.129,2.832,2.832,0,0,1,1.129,1.056,2.845,2.845,0,0,1,.425,1.517v2.719Zm17.479,0v-2.913a3.907,3.907,0,0,0-.595-2.051,5.246,5.246,0,0,0-1.687-1.687,12.251,12.251,0,0,1,2.331.5,12.153,12.153,0,0,1,2.039.862,4.3,4.3,0,0,1,1.335,1.08,2.074,2.074,0,0,1,.461,1.3v2.913Zm-12.454-8.91a3.74,3.74,0,0,1-1.141-2.743,3.74,3.74,0,0,1,1.141-2.743A3.74,3.74,0,0,1,47.769-800a3.74,3.74,0,0,1,2.743,1.141,3.74,3.74,0,0,1,1.141,2.743,3.74,3.74,0,0,1-1.141,2.743,3.74,3.74,0,0,1-2.743,1.141A3.74,3.74,0,0,1,45.025-793.372Zm11.313,0a3.74,3.74,0,0,1-2.743,1.141,4.857,4.857,0,0,1-.68-.061,5.951,5.951,0,0,1-.68-.134,5.775,5.775,0,0,0,1.007-1.724,5.6,5.6,0,0,0,.352-1.966,5.6,5.6,0,0,0-.352-1.966,5.774,5.774,0,0,0-1.007-1.724,2.952,2.952,0,0,1,.68-.158,6.372,6.372,0,0,1,.68-.036,3.74,3.74,0,0,1,2.743,1.141,3.74,3.74,0,0,1,1.141,2.743A3.74,3.74,0,0,1,56.338-793.372Zm-14.4,6.967H53.595v-.777a.913.913,0,0,0-.134-.486.945.945,0,0,0-.352-.34,12.657,12.657,0,0,0-2.646-.983,11.264,11.264,0,0,0-2.695-.328,11.264,11.264,0,0,0-2.695.328,12.657,12.657,0,0,0-2.646.983.945.945,0,0,0-.352.34.913.913,0,0,0-.134.486Zm7.2-8.339a1.87,1.87,0,0,0,.571-1.372,1.87,1.87,0,0,0-.571-1.372,1.87,1.87,0,0,0-1.372-.57,1.87,1.87,0,0,0-1.372.57,1.87,1.87,0,0,0-.571,1.372,1.87,1.87,0,0,0,.571,1.372,1.87,1.87,0,0,0,1.372.57A1.87,1.87,0,0,0,49.14-794.744ZM47.769-786.405ZM47.769-796.116Z" transform="translate(-29.682 812.912)" fill="#5a607b"/>
</svg>
