<svg xmlns="http://www.w3.org/2000/svg" width="50" height="50" viewBox="0 0 50 50">
  <g id="Group_173248" data-name="Group 173248" transform="translate(-403.115 -635)">
    <g id="Rectangle_1844" data-name="Rectangle 1844" transform="translate(403.115 635)" fill="#eff7e5" stroke="#dceacc" stroke-width="1">
      <rect width="50" height="50" rx="4" stroke="none"/>
      <rect x="0.5" y="0.5" width="49" height="49" rx="3.5" fill="none"/>
    </g>
    <path id="crosswalk" d="M15.654,12.02a.469.469,0,0,1-.469-.469V1.407a.47.47,0,0,0-.469-.469H10.9a.47.47,0,0,0-.469.469V11.551c0,.435.583.469.762.469H12.81a.469.469,0,0,1,.469.469V27.676a.469.469,0,0,1-.938,0V12.958H11.2a1.5,1.5,0,0,1-1.7-1.407V1.407A1.409,1.409,0,0,1,10.9,0h3.811a1.409,1.409,0,0,1,1.407,1.407V11.551A.469.469,0,0,1,15.654,12.02ZM13.719,9.7A.909.909,0,1,1,12.81,8.8.91.91,0,0,1,13.719,9.7Zm-.909-.029a.029.029,0,0,0,0,.059A.029.029,0,0,0,12.81,9.675Zm.909-3.2a.909.909,0,1,1-.909-.909A.91.91,0,0,1,13.719,6.479ZM12.81,6.45a.029.029,0,0,0,0,.059A.029.029,0,0,0,12.81,6.45Zm.909-3.2a.909.909,0,1,1-.909-.909A.91.91,0,0,1,13.719,3.254Zm-.909-.029a.029.029,0,0,0,0,.059A.029.029,0,0,0,12.81,3.225Zm8.238,17.767H18.7a.469.469,0,0,0-.439.3L15.919,27.51a.469.469,0,0,0,.439.635h4.691a.469.469,0,0,0,0-.938H17.036l1.991-5.277h1.552v3.049a.469.469,0,1,0,.938,0V21.461A.469.469,0,0,0,21.048,20.992Zm7.287,3a.469.469,0,0,0-.922.174l.574,3.044H24.429l1-5.277h1.957a.469.469,0,1,0,0-.938H25.035a.469.469,0,0,0-.461.382L23.4,27.589a.469.469,0,0,0,.461.556h4.691a.469.469,0,0,0,.461-.556ZM36.5,27.51,34.152,21.3a.469.469,0,0,0-.439-.3H31.368a.469.469,0,0,0,0,.938h2.021l1.991,5.277H31.837V23.835a.469.469,0,1,0-.938,0v3.841a.469.469,0,0,0,.469.469h4.691A.469.469,0,0,0,36.5,27.51Z" transform="translate(405.104 645.928)"/>
  </g>
</svg>
