<svg id="Group_173751" data-name="Group 173751" xmlns="http://www.w3.org/2000/svg" width="42" height="42" viewBox="0 0 42 42">
  <circle id="Ellipse_9419" data-name="Ellipse 9419" cx="21" cy="21" r="21" fill="#f4ecff"/>
  <path id="Path_83359" data-name="Path 83359" d="M81.942-784.463a1.87,1.87,0,0,1-1.372-.571A1.87,1.87,0,0,1,80-786.4v-11.653a1.87,1.87,0,0,1,.571-1.372,1.87,1.87,0,0,1,1.372-.57h5.826l1.942,1.942h7.769a1.87,1.87,0,0,1,1.372.571,1.87,1.87,0,0,1,.571,1.372v9.711a1.87,1.87,0,0,1-.571,1.372,1.87,1.87,0,0,1-1.372.571Zm0-1.942H97.479v-9.711H88.91l-1.942-1.942H81.942Zm0,0v0Z" transform="translate(-69.016 812.912)" fill="#5a607b"/>
</svg>
