<svg id="Group_173659" data-name="Group 173659" xmlns="http://www.w3.org/2000/svg" width="45" height="45" viewBox="0 0 45 45">
  <rect id="Rectangle_75" data-name="Rectangle 75" width="45" height="45" rx="10" fill="#ebedf6"/>
  <path id="activity_zone_24dp_42526E_FILL0_wght400_GRAD0_opsz24" d="M83.178-858.813a3.065,3.065,0,0,1-2.251-.927A3.065,3.065,0,0,1,80-861.991a3.021,3.021,0,0,1,.6-1.841,3.274,3.274,0,0,1,1.523-1.152v-8.846a3.272,3.272,0,0,1-1.523-1.152,3.021,3.021,0,0,1-.6-1.841,3.065,3.065,0,0,1,.927-2.251A3.065,3.065,0,0,1,83.178-880a3.021,3.021,0,0,1,1.841.6,3.273,3.273,0,0,1,1.152,1.523h8.846a3.109,3.109,0,0,1,1.126-1.523,3.062,3.062,0,0,1,1.867-.6,3.065,3.065,0,0,1,2.251.927,3.065,3.065,0,0,1,.927,2.251,3.061,3.061,0,0,1-.6,1.867,3.108,3.108,0,0,1-1.523,1.125v8.846a3.274,3.274,0,0,1,1.523,1.152,3.021,3.021,0,0,1,.6,1.841,3.065,3.065,0,0,1-.927,2.251,3.065,3.065,0,0,1-2.251.927,3.021,3.021,0,0,1-1.841-.6,3.274,3.274,0,0,1-1.152-1.523H86.171a3.274,3.274,0,0,1-1.152,1.523A3.021,3.021,0,0,1,83.178-858.813Zm0-16.95a1.025,1.025,0,0,0,.755-.3,1.025,1.025,0,0,0,.3-.755,1.025,1.025,0,0,0-.3-.755,1.025,1.025,0,0,0-.755-.3,1.025,1.025,0,0,0-.755.3,1.025,1.025,0,0,0-.3.755,1.025,1.025,0,0,0,.3.755A1.025,1.025,0,0,0,83.178-875.762Zm14.831,0a1.025,1.025,0,0,0,.755-.3,1.025,1.025,0,0,0,.3-.755,1.025,1.025,0,0,0-.3-.755,1.025,1.025,0,0,0-.755-.3,1.025,1.025,0,0,0-.755.3,1.025,1.025,0,0,0-.3.755,1.025,1.025,0,0,0,.3.755A1.025,1.025,0,0,0,98.009-875.762ZM86.171-863.05h8.846a3.092,3.092,0,0,1,.742-1.192,3.093,3.093,0,0,1,1.192-.742v-8.846a3.091,3.091,0,0,1-1.192-.741,3.092,3.092,0,0,1-.742-1.192H86.171a3.092,3.092,0,0,1-.742,1.192,3.091,3.091,0,0,1-1.192.741v8.846a3.093,3.093,0,0,1,1.192.742A3.092,3.092,0,0,1,86.171-863.05Zm11.838,2.119a1.025,1.025,0,0,0,.755-.3,1.025,1.025,0,0,0,.3-.755,1.025,1.025,0,0,0-.3-.755,1.025,1.025,0,0,0-.755-.3,1.025,1.025,0,0,0-.755.3,1.025,1.025,0,0,0-.3.755,1.025,1.025,0,0,0,.3.755A1.025,1.025,0,0,0,98.009-860.931Zm-14.831,0a1.025,1.025,0,0,0,.755-.3,1.025,1.025,0,0,0,.3-.755,1.025,1.025,0,0,0-.3-.755,1.025,1.025,0,0,0-.755-.3,1.025,1.025,0,0,0-.755.3,1.025,1.025,0,0,0-.3.755,1.025,1.025,0,0,0,.3.755A1.025,1.025,0,0,0,83.178-860.931ZM83.178-876.822ZM98.009-876.822ZM98.009-861.991ZM83.178-861.991Z" transform="translate(-68.094 891.906)" fill="#5a607b"/>
</svg>
