<svg xmlns="http://www.w3.org/2000/svg" width="16.729" height="16.729" viewBox="0 0 16.729 16.729">
  <path id="refresh_24dp_42526E_FILL0_wght400_GRAD0_opsz24" d="M168.365-783.271a8.073,8.073,0,0,1-5.934-2.431A8.073,8.073,0,0,1,160-791.635a8.073,8.073,0,0,1,2.431-5.934A8.073,8.073,0,0,1,168.365-800a8.279,8.279,0,0,1,3.45.745,7.97,7.97,0,0,1,2.823,2.13V-800h2.091v7.319H169.41v-2.091H173.8a6.1,6.1,0,0,0-2.287-2.3,6.2,6.2,0,0,0-3.15-.836,6.05,6.05,0,0,0-4.444,1.83,6.05,6.05,0,0,0-1.83,4.444,6.05,6.05,0,0,0,1.83,4.444,6.05,6.05,0,0,0,4.444,1.83,6.13,6.13,0,0,0,3.633-1.15,6.074,6.074,0,0,0,2.274-3.032h2.2a8.255,8.255,0,0,1-2.98,4.522A8.113,8.113,0,0,1,168.365-783.271Z" transform="translate(-160 800)" fill="#c7393a"/>
</svg>
