<svg xmlns="http://www.w3.org/2000/svg" width="14.407" height="16.809" viewBox="0 0 14.407 16.809">
  <path id="Path_83355" data-name="Path 83355" d="M124.8-918.4V-920h4.8v1.6Zm1.6,8.8H128v-4.8h-1.6Zm-1.991,5.833a7.357,7.357,0,0,1-2.291-1.551,7.357,7.357,0,0,1-1.551-2.291A6.92,6.92,0,0,1,120-910.4a6.921,6.921,0,0,1,.57-2.792,7.359,7.359,0,0,1,1.551-2.291,7.357,7.357,0,0,1,2.291-1.551,6.919,6.919,0,0,1,2.791-.57,7.139,7.139,0,0,1,2.381.4,7.779,7.779,0,0,1,2.141,1.161l1.121-1.121,1.121,1.121-1.121,1.121a7.781,7.781,0,0,1,1.161,2.141,7.139,7.139,0,0,1,.4,2.381,6.92,6.92,0,0,1-.57,2.791,7.357,7.357,0,0,1-1.551,2.291A7.357,7.357,0,0,1,130-903.762a6.921,6.921,0,0,1-2.791.57A6.921,6.921,0,0,1,124.412-903.762Zm6.753-2.671a5.4,5.4,0,0,0,1.641-3.962,5.4,5.4,0,0,0-1.641-3.962A5.4,5.4,0,0,0,127.2-916a5.4,5.4,0,0,0-3.962,1.641A5.4,5.4,0,0,0,121.6-910.4a5.4,5.4,0,0,0,1.641,3.962,5.4,5.4,0,0,0,3.962,1.641A5.4,5.4,0,0,0,131.166-906.433ZM127.2-910.4Z" transform="translate(-120 920)" fill="#8f6c1a"/>
</svg>
