<svg xmlns="http://www.w3.org/2000/svg" width="40" height="40" viewBox="0 0 40 40">
  <g id="Group_173713" data-name="Group 173713" transform="translate(-1403 -615)">
    <circle id="Ellipse_9417" data-name="Ellipse 9417" cx="20" cy="20" r="20" transform="translate(1403 615)" fill="rgba(90,96,123,0.15)"/>
    <path id="upload_24dp_42526E_FILL0_wght300_GRAD0_opsz24" d="M187.236-767.9v-9l-2.643,2.643-1.13-1.163L188.04-780l4.577,4.577-1.13,1.163-2.643-2.643v9Zm-5.3,3.979a1.871,1.871,0,0,1-1.375-.563,1.871,1.871,0,0,1-.563-1.375v-2.907h1.608v2.907a.315.315,0,0,0,.1.227.315.315,0,0,0,.227.1h12.2a.315.315,0,0,0,.227-.1.315.315,0,0,0,.1-.227v-2.907h1.608v2.907a1.871,1.871,0,0,1-.563,1.375,1.87,1.87,0,0,1-1.375.563Z" transform="translate(1234.96 1406.96)" fill="#5a607b"/>
  </g>
</svg>
