<svg xmlns="http://www.w3.org/2000/svg" width="18.772" height="16.208" viewBox="0 0 18.772 16.208">
  <path id="warning_24dp_42526E_FILL0_wght300_GRAD0_opsz24" d="M74.62-823.792,84.006-840l9.386,16.208Zm2.394-1.389H91l-6.993-12.04Zm7.523-1.322a.722.722,0,0,0,.217-.531.722.722,0,0,0-.217-.531.722.722,0,0,0-.531-.217.722.722,0,0,0-.531.217.722.722,0,0,0-.217.531.722.722,0,0,0,.217.531.722.722,0,0,0,.531.217A.722.722,0,0,0,84.537-826.5Zm-1.225-2.205H84.7v-4.631H83.312ZM84.006-831.2Z" transform="translate(-74.62 840)" fill="#d25f5f"/>
</svg>
